<svg width="45" height="46" viewBox="0 0 45 46" fill="none" xmlns="http://www.w3.org/2000/svg">
    <path d="M24.7146 17.4323L22.3552 13.623L19.9958 17.4323L7.77344 37.1582L11.1841 39.2715L22.3552 21.2416L33.5262 39.2715L36.937 37.1582L24.7146 17.4323Z" fill="url(#paint0_linear_656_1994)"/>
    <path d="M22.3555 21.2417L32.8711 30.5964L36.9372 37.1583L33.5265 39.2716L22.3555 21.2417Z" fill="url(#paint1_linear_656_1994)"/>
    <path d="M22.3553 43.6374C33.5865 43.6374 42.6912 34.5328 42.6912 23.3016C42.6912 12.0705 33.5865 2.96582 22.3553 2.96582C11.1242 2.96582 2.01953 12.0705 2.01953 23.3016C2.01953 34.5328 11.1242 43.6374 22.3553 43.6374Z" stroke="url(#paint2_linear_656_1994)" stroke-width="4.01259" stroke-miterlimit="10"/>
    <path d="M1.06735 26.3566C2.40488 29.2991 4.18646 31.1984 5.53736 32.6323C6.56164 33.7192 7.67084 34.7228 8.85445 35.6337C6.43134 33.0018 4.83381 29.7167 4.25987 26.1856C3.68593 22.6544 4.16081 19.0325 5.62564 15.7687C7.60251 10.6459 11.4011 7.53484 13.0677 6.17056C18.3616 1.83964 20.3866 1.32068 21.1223 1.0398C21.2266 0.996994 20.6622 0.964895 19.6537 1.07457C19.445 1.10132 19.2364 1.12272 19.033 1.15482L18.8618 1.18157C18.5596 1.22704 18.26 1.28323 17.963 1.34208L17.7651 1.38219C17.4976 1.43837 17.2301 1.4999 16.9626 1.5641L16.6175 1.65238C16.3821 1.7139 16.152 1.78078 15.9193 1.85033L15.526 1.97339C15.2585 2.05632 14.991 2.14459 14.7369 2.2409L14.5764 2.29974C10.3043 3.88863 6.61929 6.74424 4.01437 10.4845C1.40945 14.2248 0.00888023 18.6714 0 23.2294C0.042801 23.4568 0.0909514 23.6788 0.149803 23.8955C0.403414 24.7344 0.709874 25.5564 1.06735 26.3566Z" fill="url(#paint3_linear_656_1994)"/>
    <path d="M39.6161 36.1663C40.7664 33.1381 40.8359 30.5353 40.8947 28.5665C40.9377 27.0737 40.8617 25.5798 40.6674 24.0991C40.5179 27.6725 39.323 31.1235 37.2307 34.0242C35.1384 36.9249 32.2408 39.1476 28.8971 40.417C23.8733 42.6426 18.9994 42.1558 16.8593 41.9418C10.054 41.2623 8.25633 40.1976 7.53674 39.8766C7.43241 39.8311 7.80424 40.2538 8.60676 40.8905C8.77261 41.0189 8.9358 41.158 9.10433 41.273L9.24343 41.3747C9.48953 41.5539 9.73831 41.7278 9.99244 41.8963L10.161 42.0087C10.3857 42.1558 10.6157 42.2976 10.8458 42.4367L11.1534 42.6186C11.3621 42.7416 11.5734 42.8566 11.7874 42.9717L12.1512 43.1643C12.3973 43.29 12.6461 43.4157 12.8976 43.5334L13.0527 43.603C17.1976 45.5006 21.8232 46.0874 26.3106 45.2847C30.798 44.4821 34.9334 42.3283 38.1635 39.1116C38.2919 38.9216 38.415 38.729 38.5246 38.5338C38.9384 37.7686 39.303 36.9779 39.6161 36.1663Z" fill="url(#paint4_linear_656_1994)"/>
    <defs>
        <linearGradient id="paint0_linear_656_1994" x1="7.77344" y1="26.4473" x2="118.688" y2="-1.40004" gradientUnits="userSpaceOnUse">
            <stop stop-color="white"/>
            <stop offset="1" stop-color="#0E4C99"/>
            <stop offset="1" stop-color="white"/>
        </linearGradient>
        <linearGradient id="paint1_linear_656_1994" x1="-24.0595" y1="30.2567" x2="-23.9579" y2="30.2567" gradientUnits="userSpaceOnUse">
            <stop stop-color="#3B5CAA"/>
            <stop offset="1" stop-color="#0E4C99"/>
        </linearGradient>
        <linearGradient id="paint2_linear_656_1994" x1="0.0132354" y1="23.3016" x2="44.6975" y2="23.3016" gradientUnits="userSpaceOnUse">
            <stop stop-color="#3B5CAA"/>
            <stop offset="1" stop-color="#0E4C99"/>
        </linearGradient>
        <linearGradient id="paint3_linear_656_1994" x1="11.567" y1="5.4242" x2="1.93674" y2="30.3023" gradientUnits="userSpaceOnUse">
            <stop stop-color="#1E4E97"/>
            <stop offset="1" stop-color="#1C2652"/>
        </linearGradient>
        <linearGradient id="paint4_linear_656_1994" x1="53.9089" y1="24.2275" x2="24.213" y2="45.6344" gradientUnits="userSpaceOnUse">
            <stop stop-color="#0AF0CF"/>
            <stop offset="1" stop-color="#3ABCED"/>
        </linearGradient>
    </defs>
</svg>
