<svg width="111" height="111" viewBox="0 0 111 111" fill="none" xmlns="http://www.w3.org/2000/svg">
<path d="M49.8386 74.2799L44.6132 84.0145L55.8003 84.0149L101.766 84.0146L105.946 74.6218L60.8817 74.6218L90.0051 16.7029L82.3713 10.5958L49.8386 74.2799Z" fill="url(#paint0_linear_368_491)"/>
<path d="M54.1558 42.2553L59.3812 32.5208L48.1941 32.5203L8.17572 32.5201L5.52383 41.9134L43.1128 41.9134L17.0848 94.4709L24.7763 100.63L54.1558 42.2553Z" fill="url(#paint1_linear_368_491)"/>
<path d="M55.1221 105.232C82.8149 105.232 105.264 82.7824 105.264 55.0896C105.264 27.3968 82.8149 4.94727 55.1221 4.94727C27.4292 4.94727 4.97974 27.3968 4.97974 55.0896C4.97974 82.7824 27.4292 105.232 55.1221 105.232Z" stroke="url(#paint2_linear_368_491)" stroke-width="9.89391" stroke-miterlimit="10"/>
<path d="M2.63177 62.6168C5.92974 69.8723 10.3226 74.5555 13.6536 78.0909C16.1791 80.771 18.9141 83.2457 21.8325 85.4916C15.8579 79.0021 11.9188 70.9019 10.5036 62.1952C9.08845 53.4884 10.2594 44.5578 13.8712 36.5101C18.7456 23.8789 28.1119 16.2078 32.2211 12.8439C45.2745 2.16503 50.2676 0.885424 52.0815 0.19285C52.3388 0.0873154 50.947 0.00816735 48.4603 0.278601C47.9459 0.34456 47.4314 0.39732 46.9301 0.476471L46.5079 0.542414C45.7626 0.654545 45.0239 0.793084 44.2917 0.938195L43.8036 1.03711C43.144 1.17562 42.4844 1.32733 41.8248 1.48563L40.974 1.70331C40.3935 1.85501 39.8262 2.01991 39.2524 2.1914L38.2828 2.49483C37.6232 2.6993 36.9636 2.91697 36.337 3.15442L35.9413 3.29951C25.4075 7.21726 16.3213 14.2584 9.8983 23.4809C3.47531 32.7034 0.0218961 43.6675 0 54.9062C0.105535 55.4668 0.22426 56.0143 0.369371 56.5486C0.994705 58.617 1.75035 60.6438 2.63177 62.6168Z" fill="url(#paint3_linear_368_491)"/>
<path d="M97.6832 86.8041C100.519 79.3375 100.691 72.9196 100.836 68.065C100.942 64.3842 100.755 60.7008 100.275 57.0498C99.907 65.8608 96.9606 74.3699 91.8016 81.5222C86.6426 88.6744 79.4979 94.1552 71.2533 97.285C58.8661 102.773 46.8483 101.572 41.5715 101.045C24.7915 99.3694 20.359 96.7442 18.5847 95.9526C18.3274 95.8405 19.2443 96.8827 21.223 98.4525C21.632 98.7691 22.0344 99.1121 22.4499 99.3957L22.7929 99.6464C23.3997 100.088 24.0131 100.517 24.6397 100.933L25.0553 101.21C25.6093 101.572 26.1766 101.922 26.7438 102.265L27.5024 102.713C28.0169 103.017 28.5379 103.301 29.0656 103.584L29.9627 104.059C30.5695 104.369 31.1829 104.679 31.8029 104.969L32.1855 105.141C42.4057 109.82 53.8109 111.267 64.8757 109.287C75.9404 107.308 86.137 101.998 94.1016 94.0662C94.4182 93.5979 94.7216 93.123 94.9921 92.6415C96.0123 90.7549 96.9112 88.8051 97.6832 86.8041Z" fill="url(#paint4_linear_368_491)"/>
<defs>
<linearGradient id="paint0_linear_368_491" x1="89.9751" y1="99.3468" x2="-106.231" y2="-103.165" gradientUnits="userSpaceOnUse">
<stop stop-color="white"/>
<stop offset="1" stop-color="#0E4C99"/>
<stop offset="1" stop-color="white"/>
</linearGradient>
<linearGradient id="paint1_linear_368_491" x1="14.0198" y1="17.1923" x2="210.226" y2="219.704" gradientUnits="userSpaceOnUse">
<stop stop-color="white"/>
<stop offset="1" stop-color="#0E4C99"/>
<stop offset="1" stop-color="white"/>
</linearGradient>
<linearGradient id="paint2_linear_368_491" x1="55.1221" y1="-100.179" x2="55.1221" y2="119.244" gradientUnits="userSpaceOnUse">
<stop offset="0.235577" stop-color="#ECEAFF"/>
<stop offset="0.55" stop-color="#0AF0CF"/>
<stop offset="0.75" stop-color="#3B328D"/>
<stop offset="0.9" stop-color="#26205A"/>
<stop offset="0.980769" stop-color="#111A35"/>
</linearGradient>
<linearGradient id="paint3_linear_368_491" x1="28.5208" y1="11.0036" x2="4.77545" y2="72.3458" gradientUnits="userSpaceOnUse">
<stop stop-color="#1E4E97"/>
<stop offset="1" stop-color="#1C2652"/>
</linearGradient>
<linearGradient id="paint4_linear_368_491" x1="132.925" y1="57.3664" x2="59.7035" y2="110.15" gradientUnits="userSpaceOnUse">
<stop stop-color="#0AF0CF"/>
<stop offset="1" stop-color="#3ABCED"/>
</linearGradient>
</defs>
</svg>
